<svg xmlns="http://www.w3.org/2000/svg" viewBox="0 0 200.12 53.63"><defs><style>.cls-1{fill:#2c314a;}.cls-2{fill:#00ce7c;}</style></defs><g id="Capa_2" data-name="Capa 2"><g id="Modo_de_aislamiento" data-name="Modo de aislamiento"><path class="cls-1" d="M1.43,53.5a1.44,1.44,0,0,1-1-.38,1.45,1.45,0,0,1-.38-1V24.59a1.45,1.45,0,0,1,.38-1.05,1.44,1.44,0,0,1,1-.38H14.14a1.33,1.33,0,0,1,1.44,1.43V26a1.4,1.4,0,0,1-.39,1.05,1.42,1.42,0,0,1-1,.38H6.72a2.19,2.19,0,0,0-2.19,2.2v5.27a2.2,2.2,0,0,0,2.19,2.2h4.41a1.45,1.45,0,0,1,1,.38,1.44,1.44,0,0,1,.38,1V40a1.38,1.38,0,0,1-.38,1,1.47,1.47,0,0,1-1,.41H6.72A2.19,2.19,0,0,0,4.53,43.6v8.47a1.45,1.45,0,0,1-.38,1,1.45,1.45,0,0,1-1.05.38Z"/><path class="cls-1" d="M41.38,42.67a11.54,11.54,0,0,1-.84,4.46,9.79,9.79,0,0,1-2.33,3.45,10.89,10.89,0,0,1-3.55,2.24,12.79,12.79,0,0,1-9,0,11,11,0,0,1-3.55-2.24,9.79,9.79,0,0,1-2.33-3.45A11.54,11.54,0,0,1,19,42.67V34.16a11.54,11.54,0,0,1,.83-4.46,9.79,9.79,0,0,1,2.33-3.45A11,11,0,0,1,25.7,24a12.79,12.79,0,0,1,9,0,10.89,10.89,0,0,1,3.55,2.24,9.79,9.79,0,0,1,2.33,3.45,11.54,11.54,0,0,1,.84,4.46Zm-4.53-8.51a6.89,6.89,0,0,0-1.71-4.77,6.34,6.34,0,0,0-5-1.9,6.3,6.3,0,0,0-4.95,1.9,6.85,6.85,0,0,0-1.72,4.77v8.51a6.84,6.84,0,0,0,1.72,4.77,6.3,6.3,0,0,0,4.95,1.9,6.34,6.34,0,0,0,5-1.9,6.87,6.87,0,0,0,1.71-4.77Z"/><path class="cls-1" d="M65.1,53.5a1.87,1.87,0,0,1-1.77-1.29l-5.62-10a1,1,0,0,0-1-.67h-3.4a1.6,1.6,0,0,0-1.6,1.6v9a1.32,1.32,0,0,1-1.43,1.43H48.61a1.44,1.44,0,0,1-1-.38,1.45,1.45,0,0,1-.38-1V24.59a1.45,1.45,0,0,1,.38-1.05,1.44,1.44,0,0,1,1-.38h9.77a9.23,9.23,0,0,1,3.57.69,8.71,8.71,0,0,1,4.79,4.79,9.23,9.23,0,0,1,.69,3.57,9.05,9.05,0,0,1-4.57,8c-.51.28-.62.74-.34,1.38l5.72,10.18A1.3,1.3,0,0,1,68.29,53a1.07,1.07,0,0,1-1,.5ZM57.86,37.22A5.61,5.61,0,0,0,59.49,37a4.54,4.54,0,0,0,2-1.18,5,5,0,0,0,1.08-1.59,5,5,0,0,0,.4-2,4.66,4.66,0,0,0-.4-2,4.58,4.58,0,0,0-1.08-1.5,4.7,4.7,0,0,0-2-1.1,5.75,5.75,0,0,0-1.6-.19H53.35a1.6,1.6,0,0,0-1.6,1.6v6.57a1.6,1.6,0,0,0,1.6,1.6Z"/><path class="cls-1" d="M96.88,53.5a1.32,1.32,0,0,1-1.43-1.43v-20a.56.56,0,0,0-.28-.57c-.19-.1-.35,0-.48.38l-4.81,10a1.73,1.73,0,0,1-1.72,1.29h-3a1.73,1.73,0,0,1-1.72-1.29l-4.81-10c-.13-.29-.29-.43-.48-.43s-.29.21-.29.62v20A1.31,1.31,0,0,1,76.4,53.5H74.73a1.42,1.42,0,0,1-1-.38,1.45,1.45,0,0,1-.38-1V24.59a1.45,1.45,0,0,1,.38-1.05,1.42,1.42,0,0,1,1-.38h4.19a1.66,1.66,0,0,1,1,.31,2,2,0,0,1,.57.83l5.62,13c.1.32.25.47.46.46s.37-.17.5-.46l5.62-13a1.9,1.9,0,0,1,.57-.83,1.64,1.64,0,0,1,1-.31h4.19a1.44,1.44,0,0,1,1,.38,1.45,1.45,0,0,1,.38,1.05V52.07a1.45,1.45,0,0,1-.38,1,1.44,1.44,0,0,1-1,.38Z"/><path class="cls-1" d="M128.14,53.15a1.48,1.48,0,0,1-1.08.34,2.87,2.87,0,0,1-1.11-.34L112.08,45.4a.51.51,0,0,0-.6,0,1,1,0,0,0-.35.47l-2,6.48a1.5,1.5,0,0,1-1.62,1.15h-2.33c-.92,0-1.25-.45-1-1.34l9.53-27.71a1.85,1.85,0,0,1,.64-1,2,2,0,0,1,1.07-.26h3.34a2,2,0,0,1,1.07.26,1.85,1.85,0,0,1,.64,1l9.1,26.08a1.49,1.49,0,0,1-.38,1.72Zm-11-24.46c-.22,0-.38.17-.47.52l-3.77,10.52a1.39,1.39,0,0,0,0,.93,1.21,1.21,0,0,0,.48.5l9,4.89c.35.23.6.25.76.08a.59.59,0,0,0,.14-.6"/><path class="cls-1" d="M152.15,53.5a1.87,1.87,0,0,1-1.76-1.29l-5.63-10a1,1,0,0,0-1-.67h-3.4a1.6,1.6,0,0,0-1.6,1.6v9a1.45,1.45,0,0,1-.38,1,1.42,1.42,0,0,1-1,.38h-1.67a1.33,1.33,0,0,1-1.43-1.43V24.59a1.33,1.33,0,0,1,1.43-1.43h9.77a9.23,9.23,0,0,1,3.57.69,8.62,8.62,0,0,1,4.79,4.79,9.23,9.23,0,0,1,.69,3.57,9,9,0,0,1-4.57,8q-.76.42-.33,1.38l5.71,10.18a1.3,1.3,0,0,1,.05,1.22,1.06,1.06,0,0,1-1,.5Zm-7.24-16.28a5.57,5.57,0,0,0,1.63-.21,4.58,4.58,0,0,0,2-1.18,5.11,5.11,0,0,0,1.07-1.59,5,5,0,0,0,.4-2,4.63,4.63,0,0,0-1.47-3.47,4.74,4.74,0,0,0-2-1.1,5.68,5.68,0,0,0-1.59-.19h-4.54a1.6,1.6,0,0,0-1.6,1.6v6.57a1.6,1.6,0,0,0,1.6,1.6Z"/><path class="cls-1" d="M185,53.5a1.32,1.32,0,0,1-1.43-1.43V24.59A1.32,1.32,0,0,1,185,23.16h12.72a1.32,1.32,0,0,1,1.43,1.43V26a1.44,1.44,0,0,1-.38,1.05,1.45,1.45,0,0,1-1,.38h-7.63a2,2,0,0,0-2,2V35.3a2,2,0,0,0,2,2h4.59a1.32,1.32,0,0,1,1.43,1.43v1.43a1.32,1.32,0,0,1-1.43,1.43h-4.59a2,2,0,0,0-2,2v3.65a2,2,0,0,0,2,2h8.58a1.44,1.44,0,0,1,1.05.38,1.42,1.42,0,0,1,.38,1v1.43a1.45,1.45,0,0,1-.38,1,1.44,1.44,0,0,1-1.05.38Z"/><path class="cls-2" d="M171.2,19.33a13.53,13.53,0,0,0,3.1-9.56.19.19,0,0,1,.37-.07c.52,1.55,1.36,3.67,2.25,4.33a.19.19,0,0,1,.08.2,8.33,8.33,0,0,1-5.6,5.41.19.19,0,0,1-.2-.31"/><path class="cls-2" d="M166.21,19.35A13.61,13.61,0,0,1,164,9.55a.19.19,0,0,0-.36-.1C163,11,161.94,13,161,13.55a.21.21,0,0,0-.1.2A8.32,8.32,0,0,0,166,19.64a.19.19,0,0,0,.22-.29"/><path class="cls-2" d="M170.15.45c-.4-.62-.87-.49-.8-.24,1.49,4.33,1.14,9.75-.5,10.76a.21.21,0,0,1-.11,0c-1.47,0-1.89-2.41-2-4.44a.15.15,0,0,0-.29-.06,10.53,10.53,0,0,0,1.71,12.63.87.87,0,0,0,1.25,0c6.31-6.76,2.85-15,.73-18.66"/><path class="cls-1" d="M162.46,29.78,166.58,52A1.62,1.62,0,0,0,168,53.4h1.66A1.51,1.51,0,0,0,171.08,52s.82-4.5.82-5.08c-.32-.44-9.45-17.17-9.44-17.12"/><path class="cls-1" d="M179.69,23.64a1.41,1.41,0,0,0-1-.38H159a1.41,1.41,0,0,0-1,.38,1.37,1.37,0,0,0-.38,1V26.1a1.37,1.37,0,0,0,.38,1,6.35,6.35,0,0,0,1.89.28,2.89,2.89,0,0,1,.72.16l0,0c2.66.83,11.54,9.77,12.72,11l1.41-8.66a2.85,2.85,0,0,1,2.65-2.42,9.12,9.12,0,0,0,2.37-.29,1.41,1.41,0,0,0,.38-1V24.68a1.41,1.41,0,0,0-.38-1"/></g></g></svg>